<mxfile host="app.diagrams.net" modified="2021-05-19T12:55:01.161Z" agent="5.0 (Macintosh; Intel Mac OS X 10_15_7) AppleWebKit/537.36 (KHTML, like Gecko) Chrome/90.0.4430.93 Safari/537.36" etag="DWYKoC4g6qefiRAbkk48" version="14.6.11" type="github">
  <diagram id="JVa7j8yw1uPueOLKuKYP" name="Page-1">
    <mxGraphModel dx="3153" dy="1857" grid="1" gridSize="10" guides="1" tooltips="1" connect="1" arrows="1" fold="1" page="1" pageScale="1" pageWidth="4681" pageHeight="3300" math="0" shadow="0">
      <root>
        <mxCell id="0" />
        <mxCell id="1" parent="0" />
        <mxCell id="lVob60xEZfXTDkomilo1-1" value="" style="image;html=1;image=img/lib/clip_art/computers/Laptop_128x128.png;strokeWidth=3;" vertex="1" parent="1">
          <mxGeometry x="630" y="840" width="80" height="80" as="geometry" />
        </mxCell>
        <mxCell id="lVob60xEZfXTDkomilo1-2" value="" style="html=1;verticalLabelPosition=bottom;align=center;labelBackgroundColor=#ffffff;verticalAlign=top;strokeWidth=3;strokeColor=#0080F0;shadow=0;dashed=0;shape=mxgraph.ios7.icons.smartphone;" vertex="1" parent="1">
          <mxGeometry x="690" y="1036" width="20" height="40" as="geometry" />
        </mxCell>
        <mxCell id="lVob60xEZfXTDkomilo1-3" value="" style="endArrow=none;dashed=1;html=1;dashPattern=1 3;strokeWidth=3;entryX=0;entryY=0.5;entryDx=0;entryDy=0;entryPerimeter=0;" edge="1" parent="1" source="lVob60xEZfXTDkomilo1-1" target="lVob60xEZfXTDkomilo1-5">
          <mxGeometry width="50" height="50" relative="1" as="geometry">
            <mxPoint x="730" y="986" as="sourcePoint" />
            <mxPoint x="870" y="916" as="targetPoint" />
          </mxGeometry>
        </mxCell>
        <mxCell id="lVob60xEZfXTDkomilo1-4" value="" style="endArrow=none;dashed=1;html=1;dashPattern=1 3;strokeWidth=3;exitX=1.233;exitY=0.133;exitDx=0;exitDy=0;exitPerimeter=0;entryX=0.5;entryY=0.985;entryDx=0;entryDy=0;entryPerimeter=0;" edge="1" parent="1" source="lVob60xEZfXTDkomilo1-2" target="lVob60xEZfXTDkomilo1-5">
          <mxGeometry width="50" height="50" relative="1" as="geometry">
            <mxPoint x="790" y="1036" as="sourcePoint" />
            <mxPoint x="900" y="936" as="targetPoint" />
          </mxGeometry>
        </mxCell>
        <mxCell id="lVob60xEZfXTDkomilo1-5" value="" style="shape=mxgraph.cisco.misc.access_point;html=1;pointerEvents=1;dashed=0;fillColor=#036897;strokeColor=#ffffff;strokeWidth=3;verticalLabelPosition=bottom;verticalAlign=top;align=center;outlineConnect=0;" vertex="1" parent="1">
          <mxGeometry x="890" y="886" width="70" height="34" as="geometry" />
        </mxCell>
        <mxCell id="lVob60xEZfXTDkomilo1-9" value="" style="endArrow=none;html=1;exitX=1;exitY=0.5;exitDx=0;exitDy=0;exitPerimeter=0;entryX=0;entryY=0.5;entryDx=0;entryDy=0;strokeWidth=3;" edge="1" parent="1" source="lVob60xEZfXTDkomilo1-5" target="lVob60xEZfXTDkomilo1-15">
          <mxGeometry width="50" height="50" relative="1" as="geometry">
            <mxPoint x="950" y="886" as="sourcePoint" />
            <mxPoint x="1110" y="903" as="targetPoint" />
          </mxGeometry>
        </mxCell>
        <mxCell id="lVob60xEZfXTDkomilo1-14" value="" style="aspect=fixed;perimeter=ellipsePerimeter;html=1;align=center;shadow=0;dashed=0;spacingTop=3;image;image=img/lib/active_directory/internet_cloud.svg;strokeWidth=3;" vertex="1" parent="1">
          <mxGeometry x="1300" y="852.25" width="161.11" height="101.5" as="geometry" />
        </mxCell>
        <mxCell id="lVob60xEZfXTDkomilo1-15" value="" style="image;html=1;image=img/lib/clip_art/networking/Router_Icon_128x128.png;strokeWidth=3;" vertex="1" parent="1">
          <mxGeometry x="1120" y="863" width="80" height="80" as="geometry" />
        </mxCell>
        <mxCell id="lVob60xEZfXTDkomilo1-16" value="" style="endArrow=none;html=1;exitX=1;exitY=0.5;exitDx=0;exitDy=0;entryX=0;entryY=0.5;entryDx=0;entryDy=0;strokeWidth=3;" edge="1" parent="1" source="lVob60xEZfXTDkomilo1-15" target="lVob60xEZfXTDkomilo1-14">
          <mxGeometry width="50" height="50" relative="1" as="geometry">
            <mxPoint x="1180" y="976" as="sourcePoint" />
            <mxPoint x="1320" y="903" as="targetPoint" />
          </mxGeometry>
        </mxCell>
        <mxCell id="lVob60xEZfXTDkomilo1-17" value="" style="endArrow=none;html=1;entryX=1;entryY=0.5;entryDx=0;entryDy=0;exitX=0;exitY=0.5;exitDx=0;exitDy=0;strokeWidth=3;" edge="1" parent="1" source="lVob60xEZfXTDkomilo1-18" target="lVob60xEZfXTDkomilo1-14">
          <mxGeometry width="50" height="50" relative="1" as="geometry">
            <mxPoint x="1610" y="903" as="sourcePoint" />
            <mxPoint x="1440" y="926" as="targetPoint" />
          </mxGeometry>
        </mxCell>
        <mxCell id="lVob60xEZfXTDkomilo1-18" value="" style="image;html=1;image=img/lib/clip_art/networking/Router_Icon_128x128.png;strokeWidth=3;" vertex="1" parent="1">
          <mxGeometry x="1580" y="863" width="80" height="80" as="geometry" />
        </mxCell>
        <mxCell id="lVob60xEZfXTDkomilo1-19" value="" style="shape=mxgraph.cisco.misc.access_point;html=1;pointerEvents=1;dashed=0;fillColor=#036897;strokeColor=#ffffff;strokeWidth=3;verticalLabelPosition=bottom;verticalAlign=top;align=center;outlineConnect=0;" vertex="1" parent="1">
          <mxGeometry x="1770" y="886" width="75" height="34" as="geometry" />
        </mxCell>
        <mxCell id="lVob60xEZfXTDkomilo1-20" value="" style="endArrow=none;html=1;entryX=1;entryY=0.5;entryDx=0;entryDy=0;exitX=0;exitY=0.5;exitDx=0;exitDy=0;exitPerimeter=0;strokeWidth=3;" edge="1" parent="1" source="lVob60xEZfXTDkomilo1-19" target="lVob60xEZfXTDkomilo1-18">
          <mxGeometry width="50" height="50" relative="1" as="geometry">
            <mxPoint x="1390" y="976" as="sourcePoint" />
            <mxPoint x="1440" y="926" as="targetPoint" />
          </mxGeometry>
        </mxCell>
        <mxCell id="lVob60xEZfXTDkomilo1-33" style="edgeStyle=orthogonalEdgeStyle;rounded=0;orthogonalLoop=1;jettySize=auto;html=1;strokeWidth=3;endArrow=none;endFill=0;" edge="1" parent="1" source="lVob60xEZfXTDkomilo1-21">
          <mxGeometry relative="1" as="geometry">
            <mxPoint x="2010" y="1170" as="targetPoint" />
          </mxGeometry>
        </mxCell>
        <mxCell id="lVob60xEZfXTDkomilo1-21" value="" style="image;html=1;image=img/lib/clip_art/networking/Firewall_02_128x128.png;strokeWidth=3;" vertex="1" parent="1">
          <mxGeometry x="1970" y="863" width="80" height="80" as="geometry" />
        </mxCell>
        <mxCell id="lVob60xEZfXTDkomilo1-23" value="" style="endArrow=none;html=1;exitX=1;exitY=0.5;exitDx=0;exitDy=0;exitPerimeter=0;entryX=0;entryY=0.5;entryDx=0;entryDy=0;strokeWidth=3;" edge="1" parent="1" source="lVob60xEZfXTDkomilo1-19" target="lVob60xEZfXTDkomilo1-21">
          <mxGeometry width="50" height="50" relative="1" as="geometry">
            <mxPoint x="1410" y="976" as="sourcePoint" />
            <mxPoint x="1460" y="926" as="targetPoint" />
          </mxGeometry>
        </mxCell>
        <mxCell id="lVob60xEZfXTDkomilo1-24" value="" style="image;html=1;image=img/lib/clip_art/networking/Switch_128x128.png;strokeWidth=3;" vertex="1" parent="1">
          <mxGeometry x="2140" y="863" width="80" height="80" as="geometry" />
        </mxCell>
        <mxCell id="lVob60xEZfXTDkomilo1-26" value="" style="endArrow=none;html=1;entryX=1;entryY=0.5;entryDx=0;entryDy=0;exitX=0;exitY=0.5;exitDx=0;exitDy=0;strokeWidth=3;" edge="1" parent="1" source="lVob60xEZfXTDkomilo1-24" target="lVob60xEZfXTDkomilo1-21">
          <mxGeometry width="50" height="50" relative="1" as="geometry">
            <mxPoint x="1600" y="976" as="sourcePoint" />
            <mxPoint x="1650" y="926" as="targetPoint" />
          </mxGeometry>
        </mxCell>
        <mxCell id="lVob60xEZfXTDkomilo1-28" value="" style="endArrow=none;html=1;strokeWidth=3;entryX=1;entryY=0.25;entryDx=0;entryDy=0;" edge="1" parent="1" target="lVob60xEZfXTDkomilo1-24">
          <mxGeometry width="50" height="50" relative="1" as="geometry">
            <mxPoint x="2470" y="830" as="sourcePoint" />
            <mxPoint x="1690" y="1030" as="targetPoint" />
          </mxGeometry>
        </mxCell>
        <mxCell id="lVob60xEZfXTDkomilo1-29" value="" style="endArrow=none;html=1;strokeWidth=3;" edge="1" parent="1" target="lVob60xEZfXTDkomilo1-24">
          <mxGeometry width="50" height="50" relative="1" as="geometry">
            <mxPoint x="2440" y="1040" as="sourcePoint" />
            <mxPoint x="1690" y="1030" as="targetPoint" />
          </mxGeometry>
        </mxCell>
        <mxCell id="lVob60xEZfXTDkomilo1-30" value="" style="aspect=fixed;perimeter=ellipsePerimeter;html=1;align=center;shadow=0;dashed=0;spacingTop=3;image;image=img/lib/active_directory/generic_server.svg;strokeWidth=3;" vertex="1" parent="1">
          <mxGeometry x="2520" y="770" width="28.000000000000004" height="50" as="geometry" />
        </mxCell>
        <mxCell id="lVob60xEZfXTDkomilo1-31" value="" style="aspect=fixed;perimeter=ellipsePerimeter;html=1;align=center;shadow=0;dashed=0;spacingTop=3;image;image=img/lib/active_directory/database_server.svg;strokeWidth=3;" vertex="1" parent="1">
          <mxGeometry x="2479" y="1031" width="41" height="50" as="geometry" />
        </mxCell>
        <mxCell id="lVob60xEZfXTDkomilo1-35" style="edgeStyle=orthogonalEdgeStyle;rounded=0;orthogonalLoop=1;jettySize=auto;html=1;exitX=0;exitY=1;exitDx=0;exitDy=0;endArrow=none;endFill=0;strokeWidth=3;" edge="1" parent="1" source="lVob60xEZfXTDkomilo1-34">
          <mxGeometry relative="1" as="geometry">
            <mxPoint x="1980" y="1360" as="targetPoint" />
          </mxGeometry>
        </mxCell>
        <mxCell id="lVob60xEZfXTDkomilo1-36" style="edgeStyle=orthogonalEdgeStyle;rounded=0;orthogonalLoop=1;jettySize=auto;html=1;exitX=1;exitY=0.75;exitDx=0;exitDy=0;endArrow=none;endFill=0;strokeWidth=3;" edge="1" parent="1" source="lVob60xEZfXTDkomilo1-34">
          <mxGeometry relative="1" as="geometry">
            <mxPoint x="2220" y="1370" as="targetPoint" />
          </mxGeometry>
        </mxCell>
        <mxCell id="lVob60xEZfXTDkomilo1-37" style="edgeStyle=orthogonalEdgeStyle;rounded=0;orthogonalLoop=1;jettySize=auto;html=1;endArrow=none;endFill=0;strokeWidth=3;" edge="1" parent="1" source="lVob60xEZfXTDkomilo1-34">
          <mxGeometry relative="1" as="geometry">
            <mxPoint x="1720" y="1370" as="targetPoint" />
          </mxGeometry>
        </mxCell>
        <mxCell id="lVob60xEZfXTDkomilo1-34" value="" style="image;html=1;image=img/lib/clip_art/networking/Switch_128x128.png;strokeWidth=3;" vertex="1" parent="1">
          <mxGeometry x="1980" y="1150" width="80" height="80" as="geometry" />
        </mxCell>
      </root>
    </mxGraphModel>
  </diagram>
</mxfile>
